<svg xmlns="http://www.w3.org/2000/svg" viewBox="0 0 300 278.98"><defs><style>.cls-1,.cls-2{fill:#fff;}.cls-2{font-size:73px;font-family:BankGothicBT-Light, BankGothic Lt BT;font-weight:300;}</style></defs><g id="Layer_2" data-name="Layer 2"><g id="Logo"><g id="Main_Logo" data-name="Main Logo"><path class="cls-1" d="M121.19,177.13C1.55,174.76,17.89,199.69,17.56,76.27A19.17,19.17,0,0,1,36.73,57.1h87.91a19.15,19.15,0,0,1,17.14,10.6l4.48,9a2.09,2.09,0,0,0,3.93-.55l10.37-55.31A19.16,19.16,0,0,1,179.4,5.16h84.46A19.16,19.16,0,0,1,283,24.33V106a19.16,19.16,0,0,1-19.16,19.16H175.94c-12,.29-17.42-10-21.62-19.55a2.09,2.09,0,0,0-3.92.55L140,161.49A19.17,19.17,0,0,1,121.19,177.13Zm-63.38-5.75c87.27-.34,71.77,11.91,88.29-73.48,2.23-7.82-4.86-17.72-7.87-24.45a19.16,19.16,0,0,0-17.14-10.6c-30.38,2.92-97-14.41-97.78,34.5C23.44,126.13,16.34,169.89,57.81,171.38ZM179.5,119.43c30.37-2.91,97,14.41,97.77-34.5-.13-28.78,7-72.53-34.5-74h-58.6a19.16,19.16,0,0,0-18.84,15.63C165,35.68,150,88.78,156.18,96.49,160.94,106.43,166.15,120,179.5,119.43Z"/><path class="cls-1" d="M53,182.89c-16.56,0-26.25-1.38-32.71-7.8-9.07-9-8.81-24.93-8.24-59.84.18-11.19.39-23.87.35-39A24.33,24.33,0,0,1,36.73,51.94h87.91A24.21,24.21,0,0,1,146.4,65.39l.4.8,8.69-46.35A24.34,24.34,0,0,1,179.4,0h84.46a24.35,24.35,0,0,1,24.32,24.33V106a24.35,24.35,0,0,1-24.32,24.32H176c-11.44.23-18.06-7-22.23-14.15l-8.67,46.25a24.35,24.35,0,0,1-23.91,19.85h-.11c-20.24-.4-36.63,0-49.79.3C64.4,182.74,58.34,182.89,53,182.89ZM22.94,154.75c.75,6.3,2.15,10.57,4.62,13,2.2,2.19,5.74,3.44,10.8,4.11A33.83,33.83,0,0,1,22.94,154.75ZM61.5,166.21c9.55,0,17.72.14,25,.27,21.4.36,33.18.56,38.52-3.8s7.24-15.73,10.74-36.41c1.42-8.39,3-17.9,5.24-29.35l.11-.44c1.16-4.06-2.24-10.48-5-15.64-1-1.82-1.87-3.53-2.61-5.17A13.93,13.93,0,0,0,121.31,68c-7.22.66-16.15.27-25.6-.14C74.58,67,48.28,65.8,36.08,77.29c-5,4.68-7.46,11.26-7.61,20.1,0,3.68-.08,7.51-.19,11.57-.83,32.84.8,56.17,29.62,57.26ZM259.67,120h4.19a14,14,0,0,0,14-14v-1.71a32.18,32.18,0,0,1-6.28,8.2A38.81,38.81,0,0,1,259.67,120Zm-71.28-6.1c5.12,0,10.7.24,16.48.5,21.14.92,47.43,2.07,59.63-9.42,5-4.69,7.46-11.26,7.61-20.1,0-3.68.09-7.52.19-11.57.84-32.84-.8-56.18-29.63-57.26h-58.5a14,14,0,0,0-13.71,11.12c-.22,3.24-1.47,9.16-3.59,19-1.93,8.92-4.32,20-5.74,29.39-2.1,13.76-1.06,17.2-.83,17.77l.27.33.26.54c.38.8.77,1.62,1.16,2.46,4.91,10.45,9,17.84,17.16,17.56C182,114,185.09,113.92,188.39,113.92ZM151.12,99.08l-.07.37.39-.06.38,0c0-.08-.07-.16-.1-.23-.15-.23-.3-.46-.43-.71C151.24,98.63,151.18,98.85,151.12,99.08Zm-2.37-16.14c.32.72.62,1.46.91,2.19q.06-1.14.18-2.37a5.78,5.78,0,0,1-.7.14Zm-112-20.68a14,14,0,0,0-14,14V78A32.07,32.07,0,0,1,29,69.78a38.79,38.79,0,0,1,11.9-7.52ZM262.05,10.32c7.13,3.7,12.42,9.62,15.81,17.74V24.33a14,14,0,0,0-14-14Z"/></g><text class="cls-2" transform="translate(0 261.76)">fervent</text></g></g></svg>